<?xml version="1.0" ?><!DOCTYPE svg  PUBLIC '-//W3C//DTD SVG 1.1//EN'  'http://www.w3.org/Graphics/SVG/1.1/DTD/svg11.dtd'><svg enable-background="new 0 0 512 512" id="Layer_1" version="1.1" viewBox="0 0 512 512" xml:space="preserve" xmlns="http://www.w3.org/2000/svg" xmlns:xlink="http://www.w3.org/1999/xlink"><path d="M256,512C114.6,512,0,397.4,0,256C0,114.6,114.6,0,256,0c141.4,0,256,114.6,256,256  C512,397.4,397.4,512,256,512z" fill="#4C75A3"/><g id="Layer_1_1_"/><path d="M256,512c141.4,0,256-114.6,256-256c0-68.2-26.7-130-70.1-175.9L77.7,439.7C123.8,484.4,186.7,512,256,512z" fill="#466C96"/><path d="M282.6,212.5c0,8,0,16,0,24.1c0,1.3,0,2.6,0.2,3.9c0.7,5.2,1.2,11.1,6.9,13.1c5.2,1.8,8.6-2.9,11.6-6.3  c14.5-16.4,24.7-35.4,33.4-55.3c1.8-4.1,3.4-8.2,5.2-12.4c1.9-4.4,5-6.6,10-6.5c17.4,0.1,34.7,0,52.1,0.1c1.8,0,3.7,0.3,5.5,0.8  c7,1.7,8.8,4.8,6.8,11.8c-2.6,9.5-7.9,17.6-13.3,25.7c-9.2,13.8-19.8,26.6-29.6,40c-11.7,16-11.4,20,3,33.5  c12,11.2,24,22.4,33.7,35.8c2.4,3.3,4.6,6.8,6.1,10.6c2.2,5.9,0.5,10.3-5.1,12.9c-3.2,1.5-6.6,2.3-10.3,2.3  c-14.6-0.1-29.1,0.1-43.7,0c-9.8,0-17.6-4.7-24.2-11.3c-6.1-6-11.6-12.6-17.4-18.9c-3.2-3.4-6.3-6.9-10.3-9.4  c-6.3-4-11.8-2.7-15.4,3.9c-3.7,6.7-4.5,14.2-4.8,21.6c-0.5,10.8-3.9,13.6-14.9,14.2c-23.8,1.2-46.4-2.7-67.2-14.8  c-17.8-10.4-31.5-24.9-43.6-41.2c-23.9-32.4-42.2-68-58.7-104.7c-3.7-8.2-0.9-12.6,8.2-12.8c14.9-0.3,29.9-0.2,44.8,0  c6.1,0.1,10.4,3.1,12.8,9c8.1,19.7,17.8,38.6,30,56.1c3.6,5.2,7.3,10.5,12.6,14.1c5.4,3.7,9.4,2.4,12-3.6c1.8-4.4,2.4-9,2.8-13.6  c1.1-13.2,1-26.5-0.7-39.6c-1.2-8.9-6-14.8-15-16.5c-4.6-0.9-3.6-2.6-1.5-5c3.7-4.3,8.8-6.4,14.2-7c17.4-2.2,34.9-2.9,52.3,0.5  c8.3,1.6,10.7,4.8,12,13.2C284.6,191.3,282.2,201.9,282.6,212.5z" fill="#FCFDFD"/><path d="M334.7,192c-8.7,19.9-19,38.9-33.4,55.3c-3,3.4-6.3,8.1-11.6,6.3c-5.7-2-6.2-7.8-6.9-13.1  c-0.1-1-0.2-2.1-0.2-3.1l-90.2,89.1c2.7,1.9,5.5,3.7,8.4,5.5c20.8,12.2,43.4,16,67.2,14.8c11-0.5,14.4-3.4,14.9-14.2  c0.3-7.5,1.2-14.9,4.8-21.6c3.6-6.6,9.1-7.9,15.4-3.9c4,2.5,7.1,6,10.3,9.4c5.8,6.3,11.3,12.9,17.4,18.9  c6.6,6.6,14.4,11.3,24.2,11.3c14.6,0,29.1-0.1,43.7,0c3.6,0,7-0.8,10.3-2.3c5.6-2.6,7.3-7.1,5.1-12.9c-1.4-3.9-3.7-7.3-6.1-10.6  c-9.6-13.4-21.7-24.6-33.7-35.8c-14.4-13.5-14.8-17.5-3-33.5c9.8-13.4,20.5-26.2,29.6-40c5.4-8.1,10.7-16.2,13.3-25.7  c2-7,0.1-10.2-6.8-11.8c-1.8-0.4-3.7-0.8-5.5-0.8c-17.4-0.1-34.7,0.1-52.1-0.1c-0.8,0-1.6,0.1-2.3,0.2l-8.5,8.4  C337.6,185.1,336.2,188.6,334.7,192z" fill="#F1F2F2"/></svg>